<svg xmlns="http://www.w3.org/2000/svg" viewBox="0 0 180 180" xmlns:v="https://vecta.io/nano"><path d="M171.7 48.4c2.1 2.1 2.2 5.4.2 7.7l-34.2 37.7c-9.9 9.9-39.7 0-49.6 9.9s-33.8 49.6-47.6 63.5-27.6 0-27.6 0-13.9-13.9 0-27.6 53.4-37.8 63.3-47.7 0-39.7 9.9-49.6C93.9 34.5 115 15.8 123.8 8c2.2-2 5.6-1.8 7.7.2l40.2 40.2z" fill="#f17b14"/><path d="M27.2 175.9c-9.2 0-15.8-6.6-16.1-6.9s-6.9-7-6.9-16.2c0-5.4 2.3-10.5 6.9-15 7.6-7.5 22.2-17.7 36.4-27.6C59 102.1 69.9 94.5 74.4 90c4.2-4.2 4.2-13.7 4.2-23 0-10.3 0-20.9 5.7-26.6 8.5-8.5 33-30.1 37.8-34.3 3.2-2.8 8.1-2.7 11.2.4l40.2 40.2c3 3 3.2 7.9.4 11.2-4.2 4.8-25.8 29.3-34.3 37.8-5.7 5.7-16.3 5.7-26.6 5.7-9.2 0-18.8 0-23 4.2-4.5 4.4-12 15.2-20 26.7-9.9 14.3-20.1 29-27.7 36.7-4.6 4.6-9.7 6.9-15.1 6.9zM127.5 9.2c-.7 0-1.4.3-2 .8-4.8 4.2-29.2 25.7-37.6 34.1-4.2 4.2-4.2 13.8-4.2 23 0 10.3 0 20.9-5.7 26.6-4.7 4.7-15.9 12.5-27.6 20.7-13.3 9.3-28.4 19.8-35.7 27-3.6 3.5-5.4 7.4-5.4 11.4 0 7 5.4 12.6 5.4 12.6.5.5 12.2 11.8 24 0 7.3-7.3 17.8-22.6 27.1-36 8.1-11.7 15.7-22.8 20.5-27.5 5.7-5.7 16.3-5.7 26.6-5.7 9.2 0 18.8 0 23-4.2 8.4-8.4 29.9-32.8 34.1-37.6 1.1-1.2 1-3-.1-4.2L129.7 10c-.6-.5-1.4-.8-2.2-.8z" fill="#1a2649"/><path d="M159.5 36.3l-25.8 25.8 25.8-25.8z" fill="#f17b14"/><path d="M131.912 60.237l25.809-25.809 3.606 3.606-25.809 25.809z" fill="#1a2649"/><path d="M143.7 20.4l-25.8 25.8 25.8-25.8z" fill="#f17b14"/><path d="M116.068 44.443l25.809-25.809 3.606 3.606-25.809 25.809z" fill="#1a2649"/></svg>